Coordinates
version=1
nRows=8
nColumns=63
inDegrees=yes

Units are S.I. units (second, meters, Newtons, ...)
If the header above contains a line with 'inDegrees', this indicates whether rotational values are in degrees (yes) or radians (no).

endheader
time	pelvis_tilt	pelvis_list	pelvis_rotation	pelvis_tx	pelvis_ty	pelvis_tz	hip_flexion_r	hip_adduction_r	hip_rotation_r	knee_angle_r	knee_angle_r_beta	ankle_angle_r	subtalar_angle_r	mtp_angle_r	hip_flexion_l	hip_adduction_l	hip_rotation_l	knee_angle_l	knee_angle_l_beta	ankle_angle_l	subtalar_angle_l	mtp_angle_l	L5_S1_Flex_Ext	L5_S1_Lat_Bending	L5_S1_axial_rotation	L4_L5_Flex_Ext	L4_L5_Lat_Bending	L4_L5_axial_rotation	L3_L4_Flex_Ext	L3_L4_Lat_Bending	L3_L4_axial_rotation	L2_L3_Flex_Ext	L2_L3_Lat_Bending	L2_L3_axial_rotation	L1_L2_Flex_Ext	L1_L2_Lat_Bending	L1_L2_axial_rotation	L1_T12_Flex_Ext	L1_T12_Lat_Bending	L1_T12_axial_rotation	Abs_r3	Abs_r2	Abs_r1	Abs_t1	Abs_t2	neck_flexion	neck_bending	neck_rotation	arm_flex_r	arm_add_r	arm_rot_r	elbow_flex_r	pro_sup_r	wrist_flex_r	wrist_dev_r	arm_flex_l	arm_add_l	arm_rot_l	elbow_flex_l	pro_sup_l	wrist_flex_l	wrist_dev_l
      1.71186441	      2.63577980	     -9.95393444	     83.94961428	      0.21575407	      0.97300291	      0.54533385	     11.43062528	     -0.79958131	     -9.99002323	     13.51882530	      0.23594801	     36.54856614	     14.20478003	      0.00000000	      6.21536806	     -3.18702187	      4.37215257	     10.96885704	      0.19144267	     32.91715877	     -4.74818490	      0.00000000	      0.15748485	     -0.29289345	     -1.47425579	      0.29246512	     -0.38954829	     -1.56639677	      0.25873186	     -0.71214113	     -1.56639677	      0.17998944	     -0.71214113	     -1.28997381	      0.14624043	     -0.59726832	     -1.19783283	      0.08998684	     -0.45369195	     -1.10569184	      1.12489855	     -3.31326928	     -8.19936841	      0.00000000	      0.00000000	     19.64647099	      6.48937898	     15.18387930	    -15.69452703	    -12.20410366	    -23.00566403	    133.99324371	     87.56460018	     19.81347720	     -2.58555033	    -21.70311294	     -2.49327072	    -21.39810030	    137.47320715	     88.62294016	     -9.79410078	     25.88160991
      1.72881356	      2.74671678	     -9.96923981	     83.85794910	      0.21645721	      0.97298028	      0.54541855	     11.44123434	     -0.63394180	     -9.92213359	     13.53154950	      0.23617009	     36.64813644	     14.24663873	      0.00000000	      6.20209448	     -3.33303750	      4.54792280	     10.93600662	      0.19086932	     33.36263710	     -4.87303149	      0.00000000	      0.14936987	     -0.30264588	     -1.42893646	      0.27739478	     -0.40251902	     -1.51824499	      0.24539976	     -0.73585319	     -1.51824499	      0.17071482	     -0.73585319	     -1.25031941	      0.13870486	     -0.61715548	     -1.16101088	      0.08534994	     -0.46879847	     -1.07170235	      1.06693404	     -3.42359071	     -7.94731594	      0.00000000	      0.00000000	     19.25866112	      6.38414540	     15.46705970	    -15.25992126	    -11.98010176	    -23.11478608	    133.90528332	     87.55236122	     19.79191953	     -2.94866913	    -21.43332199	     -3.20903179	    -22.02518413	    137.07993636	     88.64404501	     -9.98813280	     26.42861965
      1.74576271	      2.65168945	     -9.83255979	     83.34184203	      0.21736163	      0.97321236	      0.54535017	     11.35690355	     -0.64248278	     -9.37583224	     13.56667774	      0.23678320	     36.72042347	     14.24220280	      0.00000000	      5.97696998	     -3.24772174	      4.50830965	     10.89968761	      0.19023544	     33.62993536	     -5.46124930	      0.00000000	      0.11237717	     -0.32970162	     -1.24728093	      0.20869565	     -0.43850315	     -1.32523599	      0.18462446	     -0.80163651	     -1.32523599	      0.12843587	     -0.80163651	     -1.09137082	      0.10435344	     -0.67232754	     -1.01341576	      0.06421232	     -0.51070781	     -0.93546070	      0.80269891	     -3.72965065	     -6.93700237	      0.00000000	      0.00000000	     18.73240777	      6.74922809	     16.49692073	    -15.08428268	    -11.68588453	    -23.80230791	    133.78762918	     87.84260316	     20.28147858	     -4.81565388	    -21.04163877	     -3.89169307	    -22.41531310	    137.07100282	     88.71885713	     -9.95761621	     29.03808240
      1.76271186	      2.68331085	     -9.88386310	     83.27883752	      0.21808535	      0.97311060	      0.54513757	     11.38021398	     -0.55424971	     -9.22934059	     13.56603568	      0.23677199	     36.73357906	     14.21751674	      0.00000000	      6.00002097	     -3.31981524	      4.71522267	     10.89358993	      0.19012901	     34.22974176	     -5.52114203	      0.00000000	      0.09174684	     -0.35434711	     -1.17139901	      0.17038305	     -0.47128166	     -1.24461144	      0.15073088	     -0.86155957	     -1.24461144	      0.10485746	     -0.86155957	     -1.02497413	      0.08519611	     -0.72258463	     -0.95176169	      0.05242414	     -0.54888367	     -0.87854925	      0.65533847	     -4.00844539	     -6.51496985	      0.00000000	      0.00000000	     18.58046553	      6.71464024	     16.55279798	    -15.05211372	    -11.53205413	    -24.45481440	    133.93415308	     87.97016710	     20.27720765	     -5.10886085	    -21.32058482	     -4.38208217	    -22.76617684	    137.17502849	     88.83467168	     -9.71480578	     29.07741688
      1.77966102	      2.61144045	     -9.99906464	     82.52863704	      0.21913472	      0.97316561	      0.54511514	     11.58710561	     -0.39674726	     -7.84470338	     13.59639437	      0.23730185	     36.52688161	     13.54045953	      0.00000000	      5.97663852	     -3.30856596	      4.39885246	     10.80962599	      0.18866356	     34.40679210	     -6.04961821	      0.00000000	      0.06946276	     -0.38534563	     -0.79594013	      0.12899930	     -0.51250969	     -0.84568639	      0.11412038	     -0.93692937	     -0.84568639	      0.07938899	     -0.93692937	     -0.69644761	      0.06450312	     -0.78579681	     -0.64670135	      0.03969102	     -0.59690038	     -0.59695510	      0.49616558	     -4.35910686	     -4.42678022	      0.00000000	      0.00000000	     18.49925373	      6.54841844	     15.73311449	    -15.76916371	    -11.05163765	    -26.55876967	    134.33543497	     88.39280526	     21.29307922	     -6.27287639	    -21.14205377	     -4.78122141	    -22.59784882	    136.91198167	     88.97718942	     -7.19603411	     28.59431316
      1.79661017	      2.60748664	    -10.09350511	     82.59347018	      0.21952562	      0.97315949	      0.54466753	     11.61230985	     -0.35443976	     -7.67772827	     13.52212028	      0.23600552	     36.33573284	     13.43327533	      0.00000000	      6.06391146	     -3.33010529	      4.51817883	     10.85357854	      0.18943068	     34.66752117	     -6.03553017	      0.00000000	      0.04478412	     -0.41170545	     -0.70977712	      0.08316858	     -0.54756825	     -0.75413819	      0.07357583	     -1.00102063	     -0.75413819	      0.05118377	     -1.00102063	     -0.62105498	      0.04158653	     -0.83954975	     -0.57669391	      0.02558964	     -0.63773174	     -0.53233284	      0.31988847	     -4.65729438	     -3.94756739	      0.00000000	      0.00000000	     18.31458434	      6.51597547	     15.79333298	    -16.13259368	    -10.91599234	    -27.37284335	    134.65008408	     88.48183218	     21.22967986	     -6.33459642	    -21.71660544	     -4.94815185	    -22.91387336	    137.20897948	     89.10225472	     -6.74892722	     27.87620345
      1.81355932	      2.61861258	    -10.25615566	     81.89735686	      0.22047661	      0.97329041	      0.54450815	     11.80530677	     -0.05024288	     -5.87930852	     13.44596867	      0.23467642	     35.94389893	     12.21364000	      0.00000000	      6.02106170	     -3.42304422	      4.04560274	     10.68583435	      0.18650299	     34.55564315	     -6.39177164	      0.00000000	      0.03285044	     -0.43266664	     -0.42359044	      0.06100655	     -0.57544663	     -0.45006485	      0.05396999	     -1.05198567	     -0.45006485	      0.03754477	     -1.05198567	     -0.37064164	      0.03050492	     -0.88229381	     -0.34416724	      0.01877074	     -0.67020062	     -0.31769283	      0.23464741	     -4.89441156	     -2.35588297	      0.00000000	      0.00000000	     18.18546098	      6.04874002	     15.07240453	    -16.71551920	    -10.71849554	    -28.71459038	    135.13071982	     88.55036308	     21.66182905	     -5.54081247	    -22.16089935	     -4.89089719	    -23.15805360	    136.77615879	     89.19186216	     -4.52504386	     24.42487095
      1.83050847	      2.62502675	    -10.40373643	     81.90620690	      0.22094682	      0.97323688	      0.54374565	     11.86359378	      0.01849449	     -5.70776155	     13.34847374	      0.23297482	     35.83868023	     12.13485672	      0.00000000	      6.06568144	     -3.46821112	      4.06689261	     10.61962528	      0.18534743	     34.54157322	     -6.41326794	      0.00000000	      0.02795780	     -0.46325233	     -0.36646676	      0.05192043	     -0.61612560	     -0.38937093	      0.04593187	     -1.12635173	     -0.38937093	      0.03195297	     -1.12635173	     -0.32065841	      0.02596161	     -0.94466416	     -0.29775424	      0.01597509	     -0.71757787	     -0.27485007	      0.19969975	     -5.24040306	     -2.03817815	      0.00000000	      0.00000000	     18.07445339	      5.96272921	     14.70771859	    -17.08954170	    -10.63974425	    -29.07584274	    135.29354725	     88.56296388	     21.49463566	     -5.22559213	    -23.05949905	     -4.68554962	    -23.80784736	    137.13986484	     89.25954829	     -4.17080526	     23.17261667
